<mxfile host="Electron" agent="Mozilla/5.0 (Windows NT 10.0; Win64; x64) AppleWebKit/537.36 (KHTML, like Gecko) draw.io/24.7.8 Chrome/128.0.6613.36 Electron/32.0.1 Safari/537.36" version="24.7.8">
  <diagram name="第 1 页" id="_ZGRM-rFOyGjp_PcPziV">
    <mxGraphModel dx="579" dy="454" grid="1" gridSize="10" guides="1" tooltips="1" connect="1" arrows="1" fold="1" page="1" pageScale="1" pageWidth="827" pageHeight="1169" math="0" shadow="0">
      <root>
        <mxCell id="0" />
        <mxCell id="1" parent="0" />
        <mxCell id="_YMnf9YxBCGVZKbqBwlk-1" value="" style="rounded=0;whiteSpace=wrap;html=1;" vertex="1" parent="1">
          <mxGeometry x="120" y="200" width="320" height="270" as="geometry" />
        </mxCell>
        <mxCell id="_YMnf9YxBCGVZKbqBwlk-2" value="ColorDesktop" style="text;html=1;align=center;verticalAlign=middle;resizable=0;points=[];autosize=1;strokeColor=none;fillColor=none;" vertex="1" parent="1">
          <mxGeometry x="135" y="200" width="100" height="30" as="geometry" />
        </mxCell>
        <mxCell id="_YMnf9YxBCGVZKbqBwlk-17" style="edgeStyle=orthogonalEdgeStyle;rounded=0;orthogonalLoop=1;jettySize=auto;html=1;entryX=0;entryY=0.5;entryDx=0;entryDy=0;" edge="1" parent="1" source="_YMnf9YxBCGVZKbqBwlk-3" target="_YMnf9YxBCGVZKbqBwlk-14">
          <mxGeometry relative="1" as="geometry" />
        </mxCell>
        <mxCell id="_YMnf9YxBCGVZKbqBwlk-3" value="组件A 程序集" style="whiteSpace=wrap;html=1;" vertex="1" parent="1">
          <mxGeometry x="310" y="210" width="120" height="70" as="geometry" />
        </mxCell>
        <mxCell id="_YMnf9YxBCGVZKbqBwlk-10" style="edgeStyle=orthogonalEdgeStyle;rounded=0;orthogonalLoop=1;jettySize=auto;html=1;entryX=0.5;entryY=1;entryDx=0;entryDy=0;" edge="1" parent="1" source="_YMnf9YxBCGVZKbqBwlk-4" target="_YMnf9YxBCGVZKbqBwlk-3">
          <mxGeometry relative="1" as="geometry" />
        </mxCell>
        <mxCell id="_YMnf9YxBCGVZKbqBwlk-24" style="edgeStyle=orthogonalEdgeStyle;rounded=0;orthogonalLoop=1;jettySize=auto;html=1;entryX=0;entryY=0.5;entryDx=0;entryDy=0;" edge="1" parent="1" source="_YMnf9YxBCGVZKbqBwlk-4" target="_YMnf9YxBCGVZKbqBwlk-21">
          <mxGeometry relative="1" as="geometry" />
        </mxCell>
        <mxCell id="_YMnf9YxBCGVZKbqBwlk-4" value="组件B 程序集" style="whiteSpace=wrap;html=1;" vertex="1" parent="1">
          <mxGeometry x="310" y="310" width="120" height="70" as="geometry" />
        </mxCell>
        <mxCell id="_YMnf9YxBCGVZKbqBwlk-28" style="edgeStyle=orthogonalEdgeStyle;rounded=0;orthogonalLoop=1;jettySize=auto;html=1;entryX=0;entryY=0.5;entryDx=0;entryDy=0;" edge="1" parent="1" source="_YMnf9YxBCGVZKbqBwlk-5" target="_YMnf9YxBCGVZKbqBwlk-25">
          <mxGeometry relative="1" as="geometry" />
        </mxCell>
        <mxCell id="_YMnf9YxBCGVZKbqBwlk-5" value="组件C 程序集&lt;div&gt;组件A 程序集&lt;/div&gt;" style="whiteSpace=wrap;html=1;" vertex="1" parent="1">
          <mxGeometry x="240" y="390" width="190" height="70" as="geometry" />
        </mxCell>
        <mxCell id="_YMnf9YxBCGVZKbqBwlk-6" value="组件A" style="text;html=1;align=center;verticalAlign=middle;resizable=0;points=[];autosize=1;strokeColor=none;fillColor=none;" vertex="1" parent="1">
          <mxGeometry x="310" y="210" width="60" height="30" as="geometry" />
        </mxCell>
        <mxCell id="_YMnf9YxBCGVZKbqBwlk-7" value="&lt;div&gt;Dotnet程序集&lt;/div&gt;&lt;div&gt;Avalonia程序集&lt;/div&gt;&lt;div&gt;......&lt;/div&gt;" style="text;html=1;align=center;verticalAlign=middle;resizable=0;points=[];autosize=1;strokeColor=none;fillColor=none;" vertex="1" parent="1">
          <mxGeometry x="140" y="305" width="110" height="60" as="geometry" />
        </mxCell>
        <mxCell id="_YMnf9YxBCGVZKbqBwlk-11" value="共享使用" style="text;html=1;align=center;verticalAlign=middle;resizable=0;points=[];autosize=1;strokeColor=none;fillColor=none;" vertex="1" parent="1">
          <mxGeometry x="300" y="280" width="70" height="30" as="geometry" />
        </mxCell>
        <mxCell id="_YMnf9YxBCGVZKbqBwlk-12" value="组件B" style="text;html=1;align=center;verticalAlign=middle;resizable=0;points=[];autosize=1;strokeColor=none;fillColor=none;" vertex="1" parent="1">
          <mxGeometry x="310" y="310" width="60" height="30" as="geometry" />
        </mxCell>
        <mxCell id="_YMnf9YxBCGVZKbqBwlk-13" value="组件C" style="text;html=1;align=center;verticalAlign=middle;resizable=0;points=[];autosize=1;strokeColor=none;fillColor=none;" vertex="1" parent="1">
          <mxGeometry x="240" y="390" width="60" height="30" as="geometry" />
        </mxCell>
        <mxCell id="_YMnf9YxBCGVZKbqBwlk-14" value="显示实例" style="whiteSpace=wrap;html=1;" vertex="1" parent="1">
          <mxGeometry x="520" y="200" width="120" height="60" as="geometry" />
        </mxCell>
        <mxCell id="_YMnf9YxBCGVZKbqBwlk-15" value="显示实例" style="whiteSpace=wrap;html=1;" vertex="1" parent="1">
          <mxGeometry x="530" y="210" width="120" height="60" as="geometry" />
        </mxCell>
        <mxCell id="_YMnf9YxBCGVZKbqBwlk-16" value="显示实例A" style="whiteSpace=wrap;html=1;" vertex="1" parent="1">
          <mxGeometry x="540" y="220" width="120" height="60" as="geometry" />
        </mxCell>
        <mxCell id="_YMnf9YxBCGVZKbqBwlk-21" value="显示实例" style="whiteSpace=wrap;html=1;" vertex="1" parent="1">
          <mxGeometry x="520" y="300" width="120" height="60" as="geometry" />
        </mxCell>
        <mxCell id="_YMnf9YxBCGVZKbqBwlk-22" value="显示实例" style="whiteSpace=wrap;html=1;" vertex="1" parent="1">
          <mxGeometry x="530" y="310" width="120" height="60" as="geometry" />
        </mxCell>
        <mxCell id="_YMnf9YxBCGVZKbqBwlk-23" value="显示实例B" style="whiteSpace=wrap;html=1;" vertex="1" parent="1">
          <mxGeometry x="540" y="320" width="120" height="60" as="geometry" />
        </mxCell>
        <mxCell id="_YMnf9YxBCGVZKbqBwlk-25" value="显示实例" style="whiteSpace=wrap;html=1;" vertex="1" parent="1">
          <mxGeometry x="520" y="390" width="120" height="60" as="geometry" />
        </mxCell>
        <mxCell id="_YMnf9YxBCGVZKbqBwlk-26" value="显示实例" style="whiteSpace=wrap;html=1;" vertex="1" parent="1">
          <mxGeometry x="530" y="400" width="120" height="60" as="geometry" />
        </mxCell>
        <mxCell id="_YMnf9YxBCGVZKbqBwlk-27" value="显示实例C" style="whiteSpace=wrap;html=1;" vertex="1" parent="1">
          <mxGeometry x="540" y="410" width="120" height="60" as="geometry" />
        </mxCell>
        <mxCell id="_YMnf9YxBCGVZKbqBwlk-29" value="由该组件创建" style="text;html=1;align=center;verticalAlign=middle;resizable=0;points=[];autosize=1;strokeColor=none;fillColor=none;" vertex="1" parent="1">
          <mxGeometry x="430" y="348" width="100" height="30" as="geometry" />
        </mxCell>
        <mxCell id="_YMnf9YxBCGVZKbqBwlk-30" value="由该组件创建" style="text;html=1;align=center;verticalAlign=middle;resizable=0;points=[];autosize=1;strokeColor=none;fillColor=none;" vertex="1" parent="1">
          <mxGeometry x="430" y="240" width="100" height="30" as="geometry" />
        </mxCell>
        <mxCell id="_YMnf9YxBCGVZKbqBwlk-31" value="由该组件创建" style="text;html=1;align=center;verticalAlign=middle;resizable=0;points=[];autosize=1;strokeColor=none;fillColor=none;" vertex="1" parent="1">
          <mxGeometry x="430" y="430" width="100" height="30" as="geometry" />
        </mxCell>
        <mxCell id="_YMnf9YxBCGVZKbqBwlk-33" style="edgeStyle=orthogonalEdgeStyle;rounded=0;orthogonalLoop=1;jettySize=auto;html=1;entryX=0;entryY=0.5;entryDx=0;entryDy=0;" edge="1" parent="1" source="_YMnf9YxBCGVZKbqBwlk-32" target="_YMnf9YxBCGVZKbqBwlk-3">
          <mxGeometry relative="1" as="geometry" />
        </mxCell>
        <mxCell id="_YMnf9YxBCGVZKbqBwlk-34" style="edgeStyle=orthogonalEdgeStyle;rounded=0;orthogonalLoop=1;jettySize=auto;html=1;entryX=0;entryY=0.5;entryDx=0;entryDy=0;" edge="1" parent="1" source="_YMnf9YxBCGVZKbqBwlk-32" target="_YMnf9YxBCGVZKbqBwlk-4">
          <mxGeometry relative="1" as="geometry" />
        </mxCell>
        <mxCell id="_YMnf9YxBCGVZKbqBwlk-36" style="edgeStyle=orthogonalEdgeStyle;rounded=0;orthogonalLoop=1;jettySize=auto;html=1;entryX=0;entryY=0.5;entryDx=0;entryDy=0;startArrow=block;startFill=1;" edge="1" parent="1" source="_YMnf9YxBCGVZKbqBwlk-32" target="_YMnf9YxBCGVZKbqBwlk-5">
          <mxGeometry relative="1" as="geometry">
            <Array as="points">
              <mxPoint x="270" y="270" />
              <mxPoint x="270" y="380" />
              <mxPoint x="220" y="380" />
              <mxPoint x="220" y="425" />
            </Array>
          </mxGeometry>
        </mxCell>
        <mxCell id="_YMnf9YxBCGVZKbqBwlk-32" value="&lt;span style=&quot;text-wrap: nowrap;&quot;&gt;ColorDesktop程序集&lt;/span&gt;" style="whiteSpace=wrap;html=1;" vertex="1" parent="1">
          <mxGeometry x="135" y="240" width="120" height="60" as="geometry" />
        </mxCell>
        <mxCell id="_YMnf9YxBCGVZKbqBwlk-39" value="" style="edgeStyle=orthogonalEdgeStyle;rounded=0;orthogonalLoop=1;jettySize=auto;html=1;" edge="1" parent="1" source="_YMnf9YxBCGVZKbqBwlk-37" target="_YMnf9YxBCGVZKbqBwlk-38">
          <mxGeometry relative="1" as="geometry" />
        </mxCell>
        <mxCell id="_YMnf9YxBCGVZKbqBwlk-37" value="Init()&lt;div&gt;组件初始化&lt;/div&gt;" style="whiteSpace=wrap;html=1;" vertex="1" parent="1">
          <mxGeometry x="120" y="520" width="120" height="60" as="geometry" />
        </mxCell>
        <mxCell id="_YMnf9YxBCGVZKbqBwlk-45" style="edgeStyle=orthogonalEdgeStyle;rounded=0;orthogonalLoop=1;jettySize=auto;html=1;entryX=0.5;entryY=0;entryDx=0;entryDy=0;" edge="1" parent="1" source="_YMnf9YxBCGVZKbqBwlk-38" target="_YMnf9YxBCGVZKbqBwlk-44">
          <mxGeometry relative="1" as="geometry" />
        </mxCell>
        <mxCell id="_YMnf9YxBCGVZKbqBwlk-38" value="Enable()&lt;div&gt;组件启用&lt;/div&gt;" style="whiteSpace=wrap;html=1;" vertex="1" parent="1">
          <mxGeometry x="120" y="610" width="120" height="60" as="geometry" />
        </mxCell>
        <mxCell id="_YMnf9YxBCGVZKbqBwlk-42" value="" style="edgeStyle=orthogonalEdgeStyle;rounded=0;orthogonalLoop=1;jettySize=auto;html=1;" edge="1" parent="1" source="_YMnf9YxBCGVZKbqBwlk-40" target="_YMnf9YxBCGVZKbqBwlk-41">
          <mxGeometry relative="1" as="geometry" />
        </mxCell>
        <mxCell id="_YMnf9YxBCGVZKbqBwlk-40" value="Disable()&lt;div&gt;组件禁用&lt;/div&gt;" style="whiteSpace=wrap;html=1;" vertex="1" parent="1">
          <mxGeometry x="120" y="700" width="120" height="60" as="geometry" />
        </mxCell>
        <mxCell id="_YMnf9YxBCGVZKbqBwlk-41" value="Stop()&lt;div&gt;组件停止&lt;/div&gt;" style="whiteSpace=wrap;html=1;" vertex="1" parent="1">
          <mxGeometry x="120" y="790" width="120" height="60" as="geometry" />
        </mxCell>
        <mxCell id="_YMnf9YxBCGVZKbqBwlk-46" style="edgeStyle=orthogonalEdgeStyle;rounded=0;orthogonalLoop=1;jettySize=auto;html=1;entryX=1;entryY=0.5;entryDx=0;entryDy=0;" edge="1" parent="1" source="_YMnf9YxBCGVZKbqBwlk-44" target="_YMnf9YxBCGVZKbqBwlk-40">
          <mxGeometry relative="1" as="geometry">
            <Array as="points">
              <mxPoint x="340" y="730" />
            </Array>
          </mxGeometry>
        </mxCell>
        <mxCell id="_YMnf9YxBCGVZKbqBwlk-44" value="&lt;span style=&quot;background-color: initial;&quot;&gt;正常运行&lt;/span&gt;&lt;div&gt;&lt;span style=&quot;background-color: initial;&quot;&gt;此时会调用显示实例的部分&lt;/span&gt;&lt;/div&gt;" style="whiteSpace=wrap;html=1;" vertex="1" parent="1">
          <mxGeometry x="280" y="650" width="120" height="60" as="geometry" />
        </mxCell>
        <mxCell id="_YMnf9YxBCGVZKbqBwlk-49" value="" style="edgeStyle=orthogonalEdgeStyle;rounded=0;orthogonalLoop=1;jettySize=auto;html=1;" edge="1" parent="1" source="_YMnf9YxBCGVZKbqBwlk-47" target="_YMnf9YxBCGVZKbqBwlk-48">
          <mxGeometry relative="1" as="geometry" />
        </mxCell>
        <mxCell id="_YMnf9YxBCGVZKbqBwlk-47" value="CreateView()&lt;div&gt;创建显示控件&lt;/div&gt;" style="whiteSpace=wrap;html=1;" vertex="1" parent="1">
          <mxGeometry x="440" y="520" width="120" height="60" as="geometry" />
        </mxCell>
        <mxCell id="_YMnf9YxBCGVZKbqBwlk-57" value="" style="edgeStyle=orthogonalEdgeStyle;rounded=0;orthogonalLoop=1;jettySize=auto;html=1;" edge="1" parent="1" source="_YMnf9YxBCGVZKbqBwlk-48" target="_YMnf9YxBCGVZKbqBwlk-56">
          <mxGeometry relative="1" as="geometry" />
        </mxCell>
        <mxCell id="_YMnf9YxBCGVZKbqBwlk-48" value="Start()&lt;div&gt;实例启动&lt;/div&gt;" style="whiteSpace=wrap;html=1;" vertex="1" parent="1">
          <mxGeometry x="440" y="610" width="120" height="60" as="geometry" />
        </mxCell>
        <mxCell id="_YMnf9YxBCGVZKbqBwlk-53" style="edgeStyle=orthogonalEdgeStyle;rounded=0;orthogonalLoop=1;jettySize=auto;html=1;entryX=0.5;entryY=0;entryDx=0;entryDy=0;" edge="1" parent="1" source="_YMnf9YxBCGVZKbqBwlk-50" target="_YMnf9YxBCGVZKbqBwlk-52">
          <mxGeometry relative="1" as="geometry" />
        </mxCell>
        <mxCell id="_YMnf9YxBCGVZKbqBwlk-50" value="RenderTick()&lt;div&gt;实例启动&lt;/div&gt;" style="whiteSpace=wrap;html=1;" vertex="1" parent="1">
          <mxGeometry x="440" y="790" width="120" height="60" as="geometry" />
        </mxCell>
        <mxCell id="_YMnf9YxBCGVZKbqBwlk-55" style="edgeStyle=orthogonalEdgeStyle;rounded=0;orthogonalLoop=1;jettySize=auto;html=1;entryX=1;entryY=0.5;entryDx=0;entryDy=0;" edge="1" parent="1" source="_YMnf9YxBCGVZKbqBwlk-52" target="_YMnf9YxBCGVZKbqBwlk-54">
          <mxGeometry relative="1" as="geometry">
            <Array as="points">
              <mxPoint x="650" y="910" />
            </Array>
          </mxGeometry>
        </mxCell>
        <mxCell id="_YMnf9YxBCGVZKbqBwlk-52" value="循环调用&lt;div&gt;RenderTick()&lt;/div&gt;&lt;div&gt;直到关闭&lt;/div&gt;" style="whiteSpace=wrap;html=1;" vertex="1" parent="1">
          <mxGeometry x="590" y="830" width="120" height="60" as="geometry" />
        </mxCell>
        <mxCell id="_YMnf9YxBCGVZKbqBwlk-54" value="Stop()&lt;div&gt;实例停止&lt;/div&gt;" style="whiteSpace=wrap;html=1;" vertex="1" parent="1">
          <mxGeometry x="440" y="880" width="120" height="60" as="geometry" />
        </mxCell>
        <mxCell id="_YMnf9YxBCGVZKbqBwlk-58" value="" style="edgeStyle=orthogonalEdgeStyle;rounded=0;orthogonalLoop=1;jettySize=auto;html=1;" edge="1" parent="1" source="_YMnf9YxBCGVZKbqBwlk-56" target="_YMnf9YxBCGVZKbqBwlk-50">
          <mxGeometry relative="1" as="geometry" />
        </mxCell>
        <mxCell id="_YMnf9YxBCGVZKbqBwlk-56" value="Update()&lt;div&gt;更新显示实例信息&lt;/div&gt;" style="whiteSpace=wrap;html=1;" vertex="1" parent="1">
          <mxGeometry x="440" y="700" width="120" height="60" as="geometry" />
        </mxCell>
      </root>
    </mxGraphModel>
  </diagram>
</mxfile>
